<svg width="34" height="35" viewBox="0 0 34 35" fill="none" xmlns="http://www.w3.org/2000/svg">
<path fill-rule="evenodd" clip-rule="evenodd" d="M6.18182 0.5C4.5423 0.5 2.96993 1.1513 1.81061 2.31061C0.651297 3.46993 0 5.0423 0 6.68182V28.3182C0 29.9577 0.651297 31.5301 1.81061 32.6894C2.96993 33.8487 4.5423 34.5 6.18182 34.5H27.8182C29.4577 34.5 31.0301 33.8487 32.1894 32.6894C33.3487 31.5301 34 29.9577 34 28.3182V6.68182C34 5.0423 33.3487 3.46993 32.1894 2.31061C31.0301 1.1513 29.4577 0.5 27.8182 0.5H6.18182ZM13.4176 10.1946C13.4176 8.85337 13.9503 7.56701 14.8986 6.61844C15.8469 5.66988 17.1331 5.13677 18.4744 5.13636H22.9716C23.2807 5.13636 23.5326 5.38827 23.5326 5.69891V10.1946C23.5326 10.5037 23.2807 10.7556 22.9716 10.7556H20.723C20.5017 10.7556 20.2825 10.7993 20.078 10.884C19.8735 10.9688 19.6877 11.093 19.5313 11.2496C19.3749 11.4062 19.2508 11.592 19.1662 11.7966C19.0817 12.0012 19.0383 12.2204 19.0385 12.4417V14.1278H22.9716C23.0569 14.1281 23.141 14.1478 23.2176 14.1853C23.2942 14.2229 23.3612 14.2774 23.4136 14.3447C23.466 14.412 23.5024 14.4903 23.5201 14.5738C23.5378 14.6572 23.5363 14.7436 23.5156 14.8264L22.3921 19.3236C22.3614 19.445 22.291 19.5525 22.1922 19.6293C22.0933 19.706 21.9717 19.7475 21.8465 19.7471H19.0369V29.3011C19.0369 29.4503 18.9776 29.5934 18.8721 29.6989C18.7666 29.8044 18.6236 29.8636 18.4744 29.8636H13.9786C13.8297 29.8632 13.687 29.8038 13.5819 29.6983C13.4767 29.5929 13.4176 29.45 13.4176 29.3011V19.7486H10.608C10.4588 19.7486 10.3157 19.6894 10.2102 19.5839C10.1047 19.4784 10.0455 19.3353 10.0455 19.1861V14.6888C10.0455 14.3797 10.2974 14.1278 10.608 14.1278H13.4176V10.1946Z" fill="#545A3F"/>
</svg>
