<svg width="45" height="45" viewBox="0 0 45 45" fill="none" xmlns="http://www.w3.org/2000/svg">
<path d="M21.9329 16.2645C18.8114 16.2645 16.264 18.812 16.264 21.9336C16.264 25.0552 18.8114 27.6027 21.9329 27.6027C25.0545 27.6027 27.6019 25.0552 27.6019 21.9336C27.6019 18.812 25.0545 16.2645 21.9329 16.2645ZM38.9356 21.9336C38.9356 19.586 38.9569 17.2597 38.825 14.9164C38.6932 12.1945 38.0723 9.77888 36.082 7.78854C34.0874 5.79394 31.6761 5.17727 28.9543 5.04543C26.6068 4.91359 24.2805 4.93486 21.9372 4.93486C19.5896 4.93486 17.2634 4.91359 14.9201 5.04543C12.1983 5.17727 9.7827 5.79819 7.79239 7.78854C5.79783 9.78313 5.18117 12.1945 5.04934 14.9164C4.9175 17.2639 4.93876 19.5903 4.93876 21.9336C4.93876 24.2769 4.9175 26.6075 5.04934 28.9508C5.18117 31.6727 5.80208 34.0883 7.79239 36.0786C9.78695 38.0732 12.1983 38.6899 14.9201 38.8218C17.2676 38.9536 19.5939 38.9323 21.9372 38.9323C24.2847 38.9323 26.611 38.9536 28.9543 38.8218C31.6761 38.6899 34.0917 38.069 36.082 36.0786C38.0765 34.0841 38.6932 31.6727 38.825 28.9508C38.9611 26.6075 38.9356 24.2812 38.9356 21.9336ZM21.9329 30.6562C17.106 30.6562 13.2105 26.7606 13.2105 21.9336C13.2105 17.1066 17.106 13.2109 21.9329 13.2109C26.7599 13.2109 30.6554 17.1066 30.6554 21.9336C30.6554 26.7606 26.7599 30.6562 21.9329 30.6562ZM31.0126 14.8908C29.8857 14.8908 28.9756 13.9807 28.9756 12.8537C28.9756 11.7267 29.8857 10.8166 31.0126 10.8166C32.1396 10.8166 33.0497 11.7267 33.0497 12.8537C33.0501 13.1213 32.9976 13.3864 32.8954 13.6337C32.7931 13.881 32.6431 14.1057 32.4538 14.2949C32.2646 14.4842 32.0399 14.6342 31.7926 14.7365C31.5453 14.8387 31.2803 14.8912 31.0126 14.8908Z" fill="#545A3F"/>
</svg>
