<svg width="77" height="77" viewBox="0 0 77 77" fill="none" xmlns="http://www.w3.org/2000/svg">
<circle cx="38.5" cy="38.5" r="37.5" stroke="black" stroke-width="2"/>
<path d="M53.6562 27.0781H52.3906C52.3594 26.1719 52.2812 25.4219 52.1562 24.8281C52.0625 24.2344 51.8438 23.7656 51.5 23.4219C51.125 23.0469 50.6094 22.7969 49.9531 22.6719C49.2969 22.5156 48.4062 22.4375 47.2812 22.4375H40.625V49.3438C40.625 50.4062 40.6875 51.2656 40.8125 51.9219C40.9375 52.5781 41.1719 53.0938 41.5156 53.4688C41.8594 53.8438 42.3281 54.1094 42.9219 54.2656C43.5156 54.3906 44.2812 54.4531 45.2188 54.4531V55.625C44.4062 55.625 43.4531 55.625 42.3594 55.625C41.2969 55.5938 40.2031 55.5781 39.0781 55.5781C37.9219 55.5781 36.7969 55.5781 35.7031 55.5781C34.6406 55.5781 33.7188 55.5938 32.9375 55.625V54.4531C34.7188 54.4531 35.9219 54.125 36.5469 53.4688C37.1719 52.8125 37.4844 51.4375 37.4844 49.3438V22.4375H31.7656C30.6094 22.4375 29.6562 22.5156 28.9062 22.6719C28.1875 22.7969 27.5938 23.0312 27.125 23.375C26.6562 23.7188 26.2812 24.1875 26 24.7812C25.75 25.375 25.5156 26.1406 25.2969 27.0781H24.0312L24.5469 20.6094C26.5781 20.7031 28.875 20.7656 31.4375 20.7969C34 20.8281 36.6094 20.8438 39.2656 20.8438C41.9531 20.8438 44.5781 20.8281 47.1406 20.7969C49.7031 20.7656 52.0156 20.7031 54.0781 20.6094L53.6562 27.0781Z" fill="black"/>
</svg>
