<svg width="37" height="32" viewBox="0 0 37 32" fill="none" xmlns="http://www.w3.org/2000/svg">
<path fill-rule="evenodd" clip-rule="evenodd" d="M6.14572 31.1729C4.80993 31.036 3.56127 30.4712 2.60154 29.5697C1.64182 28.6682 1.02711 27.4827 0.856746 26.2047C0.428373 22.9045 0 19.4947 0 16C0 13.4283 0.234177 10.9004 0.525471 8.43273C0.539827 8.31191 0.587611 8.19696 0.663871 8.0998C0.740131 8.00265 0.842094 7.92681 0.959194 7.88016C1.07629 7.83351 1.20427 7.81773 1.32987 7.83447C1.45546 7.85121 1.57411 7.89985 1.67351 7.97535L13.8593 17.1914C15.1816 18.191 16.8163 18.7345 18.5 18.7345C20.1837 18.7345 21.8184 18.191 23.1407 17.1914L35.3293 7.97535C35.4288 7.90057 35.5471 7.85253 35.6723 7.83619C35.7975 7.81985 35.925 7.83579 36.0416 7.88237C36.1583 7.92895 36.2598 8.0045 36.3359 8.10123C36.412 8.19796 36.4599 8.31238 36.4745 8.43273C36.7658 10.9004 37 13.4283 37 16C37 19.4947 36.5716 22.9072 36.1433 26.2047C35.9729 27.4827 35.3582 28.6682 34.3985 29.5697C33.4387 30.4712 32.1901 31.036 30.8543 31.1729L30.4716 31.2112C26.6048 31.5974 22.601 32 18.5 32C14.399 32 10.3952 31.5974 6.5284 31.2112L6.14572 31.1729ZM35.0066 3.09757C35.1064 3.2318 35.1473 3.39817 35.1206 3.56099C35.0939 3.72381 35.0017 3.87011 34.8638 3.9685L20.9303 14.5019C20.2382 15.0261 19.382 15.3113 18.5 15.3113C17.618 15.3113 16.7618 15.0261 16.0697 14.5019L2.13615 3.9685C1.99827 3.87011 1.9061 3.72381 1.8794 3.56099C1.85271 3.39817 1.89362 3.2318 1.99336 3.09757C2.48473 2.46465 3.10725 1.93599 3.82183 1.5448C4.5364 1.15361 5.32759 0.908336 6.14572 0.824375L6.5284 0.788771C10.3952 0.399863 14.399 0 18.5 0C22.601 0 26.6048 0.399863 30.4716 0.788771L30.8543 0.827114C31.6722 0.910743 32.4632 1.1556 33.1778 1.54631C33.8924 1.93702 34.515 2.46515 35.0066 3.09757Z" fill="#545A3F"/>
</svg>
